# xmcd CD database file
#
# Track frame offsets:
#	150
#	6062
#	20592
#	33942
#	48705
#	62897
#	77177
#	93567
#	109470
#	130712
#	150655
#	166777
#	185427
#	200680
#
# Disc length: 2907 seconds
#
# Revision: 2
# Processed by: cddbd v1.5.1PL0 Copyright (c) Steve Scherf et al.
# Submitted via: CDex 1.51
#
DISCID=b90b590e
DTITLE=辻横由佳 - ファイアーエムブレム 聖戦の系譜 ゲームミュージックサウンドトラック
DYEAR=1996
DGENRE=Game
TTITLE0=始まり
TTITLE1=ファイアーエムブレムのテーマ
TTITLE2=序章 聖騎士誕生
TTITLE3=1章 精霊の森の少女
TTITLE4=2章 アグストリアの動乱
TTITLE5=3章 獅子王エルトシャン
TTITLE6=4章 空を舞う
TTITLE7=5章 運命の扉
TTITLE8=6章 光をつぐもの
TTITLE9=7章 砂漠を越えて
TTITLE10=8章 トラキアの竜騎士
TTITLE11=9章 誰がために
TTITLE12=10章 光と闇と
TTITLE13=終章 最後の聖戦
EXTD=YEAR: 1996
EXTT0=
EXTT1=
EXTT2=
EXTT3=
EXTT4=
EXTT5=
EXTT6=
EXTT7=
EXTT8=
EXTT9=
EXTT10=
EXTT11=
EXTT12=
EXTT13=
PLAYORDER=
